<svg width="25" height="25" viewBox="0 0 25 25" fill="none" xmlns="http://www.w3.org/2000/svg">
<path d="M12.5 0C13.6458 0 14.7526 0.147569 15.8203 0.442708C16.888 0.737847 17.8819 1.15885 18.8021 1.70573C19.7222 2.2526 20.5642 2.90365 21.3281 3.65885C22.092 4.41406 22.7431 5.25608 23.2812 6.1849C23.8194 7.11372 24.2405 8.11198 24.5443 9.17969C24.8481 10.2474 25 11.3542 25 12.5C25 13.6458 24.8524 14.7526 24.5573 15.8203C24.2622 16.888 23.8411 17.8819 23.2943 18.8021C22.7474 19.7222 22.0964 20.5642 21.3411 21.3281C20.5859 22.092 19.7439 22.7431 18.8151 23.2812C17.8863 23.8194 16.888 24.2405 15.8203 24.5443C14.7526 24.8481 13.6458 25 12.5 25C11.3542 25 10.2474 24.8524 9.17969 24.5573C8.11198 24.2622 7.11806 23.8411 6.19792 23.2943C5.27778 22.7474 4.43576 22.0964 3.67188 21.3411C2.90799 20.5859 2.25694 19.7439 1.71875 18.8151C1.18056 17.8863 0.759549 16.8924 0.455729 15.8333C0.15191 14.7743 0 13.6632 0 12.5C0 11.3542 0.147569 10.2474 0.442708 9.17969C0.737847 8.11198 1.15885 7.11806 1.70573 6.19792C2.2526 5.27778 2.90365 4.43576 3.65885 3.67188C4.41406 2.90799 5.25608 2.25694 6.1849 1.71875C7.11372 1.18056 8.10764 0.759549 9.16667 0.455729C10.2257 0.15191 11.3368 0 12.5 0ZM13.3333 10H11.6667V18.3333H13.3333V10ZM13.3333 6.66667H11.6667V8.33333H13.3333V6.66667Z" fill="#FDB604"/>
</svg>
