<svg width="19" height="23" viewBox="0 0 19 23" fill="none" xmlns="http://www.w3.org/2000/svg">
<path d="M19 6.16553V23H0V0H12.7314L19 6.16553ZM13.1538 5.75H16.4994L13.1538 2.45947V5.75ZM17.5385 21.5625V7.1875H11.6923V1.4375H1.46154V21.5625H17.5385ZM2.92308 8.625H10.2308V10.0625H2.92308V8.625ZM2.92308 11.5H10.2308V12.9375H2.92308V11.5ZM2.92308 14.375H10.2308V15.8125H2.92308V14.375ZM14.6154 8.625H16.0769V10.0625H14.6154V8.625ZM14.6154 11.5H16.0769V12.9375H14.6154V11.5ZM14.6154 14.375H16.0769V15.8125H14.6154V14.375ZM11.6923 8.625H13.1538V10.0625H11.6923V8.625ZM11.6923 11.5H13.1538V12.9375H11.6923V11.5ZM11.6923 14.375H13.1538V15.8125H11.6923V14.375ZM14.6154 17.25H16.0769V18.6875H14.6154V17.25ZM11.6923 17.25H13.1538V18.6875H11.6923V17.25Z" fill="#DB291C"/>
</svg>
