<svg width="27" height="24" viewBox="0 0 27 24" fill="none" xmlns="http://www.w3.org/2000/svg">
<path d="M10.125 9.6H11.8125V11.2H10.125V9.6ZM15.1875 19.2H16.875V20.8H15.1875V19.2ZM20.25 9.6H21.9375V11.2H20.25V9.6ZM15.1875 9.6H16.875V11.2H15.1875V9.6ZM10.125 12.8H11.8125V14.4H10.125V12.8ZM5.0625 12.8H6.75V14.4H5.0625V12.8ZM20.25 12.8H21.9375V14.4H20.25V12.8ZM15.1875 12.8H16.875V14.4H15.1875V12.8ZM10.125 16H11.8125V17.6H10.125V16ZM5.0625 16H6.75V17.6H5.0625V16ZM20.25 16H21.9375V17.6H20.25V16ZM15.1875 16H16.875V17.6H15.1875V16ZM10.125 19.2H11.8125V20.8H10.125V19.2ZM5.0625 19.2H6.75V20.8H5.0625V19.2ZM27 1.6V24H0V1.6H5.0625V0H6.75V1.6H20.25V0H21.9375V1.6H27ZM1.6875 3.2V6.4H25.3125V3.2H21.9375V4.8H20.25V3.2H6.75V4.8H5.0625V3.2H1.6875ZM25.3125 22.4V8H1.6875V22.4H25.3125Z" fill="#808080"/>
</svg>
