<svg width="13" height="9" viewBox="0 0 13 9" fill="none" xmlns="http://www.w3.org/2000/svg">
<path d="M11.0963 1.90753C9.86862 0.677448 8.23627 0 6.50006 0C4.76386 0 3.13151 0.677448 1.90382 1.90753C0.676131 3.1377 0 4.77314 0 6.51272C0 6.99132 0.0520711 7.46882 0.154825 7.93201C0.214136 8.19913 0.291202 8.46507 0.383839 8.72245C0.440274 8.87936 0.587957 8.97705 0.745361 8.97705C0.788704 8.97705 0.832642 8.9696 0.875787 8.95409C1.07544 8.88185 1.17889 8.66123 1.10688 8.46119C1.02526 8.23441 0.957415 8.00018 0.905244 7.76486C0.842263 7.48074 0.8013 7.19047 0.78196 6.8978H1.96363C2.17588 6.8978 2.34796 6.72538 2.34796 6.51272C2.34796 6.30005 2.17588 6.12764 1.96363 6.12764H0.78186C0.832741 5.36194 1.03398 4.63689 1.35633 3.98181L2.3792 4.57359C2.43971 4.60857 2.50576 4.62527 2.57102 4.62527C2.70383 4.62527 2.83307 4.5562 2.90418 4.43268C3.01031 4.24843 2.94733 4.01291 2.76354 3.90658L1.74156 3.31539C2.15753 2.69588 2.69064 2.16173 3.30885 1.74495L3.89899 2.76892C3.9701 2.89254 4.09934 2.96161 4.23214 2.96161C4.29731 2.96161 4.36346 2.94491 4.42396 2.90993C4.60785 2.8036 4.67083 2.56808 4.56461 2.38384L3.97407 1.35897C4.62788 1.036 5.35142 0.834363 6.11563 0.783482V1.96745C6.11563 2.18012 6.28771 2.35253 6.49997 2.35253C6.71222 2.35253 6.8844 2.18012 6.8844 1.96745V0.783482C7.64851 0.834462 8.37215 1.036 9.02596 1.35897L8.43533 2.38394C8.3292 2.56808 8.39218 2.8036 8.57607 2.90993C8.63657 2.94491 8.70262 2.96161 8.76789 2.96161C8.90069 2.96161 9.02983 2.89254 9.10104 2.76902L9.69108 1.74495C10.3094 2.16173 10.8425 2.69588 11.2585 3.31539L10.2365 3.90658C10.0526 4.01291 9.98962 4.24843 10.0957 4.43268C10.167 4.5562 10.2962 4.62527 10.429 4.62527C10.4942 4.62527 10.5603 4.60867 10.6208 4.57359L11.6437 3.98191C11.966 4.63689 12.1673 5.36194 12.2182 6.12764H11.0364C10.8241 6.12764 10.652 6.30005 10.652 6.51272C10.652 6.72538 10.8241 6.8978 11.0364 6.8978H12.2181C12.1997 7.17486 12.1621 7.44994 12.1047 7.71925C12.0572 7.94165 11.9958 8.16346 11.9221 8.37841C11.8532 8.57965 11.9601 8.79867 12.1608 8.86774C12.3616 8.9367 12.5803 8.82968 12.6492 8.62854C12.7328 8.38447 12.8026 8.13275 12.8564 7.88034C12.9517 7.43354 13 6.97343 13 6.51272C13.0001 4.77314 12.324 3.1377 11.0963 1.90753Z" fill="#DB291C"/>
<path d="M8.65644 3.80288L7.01764 5.57217C6.86043 5.48243 6.67873 5.43086 6.48522 5.43086C5.88983 5.43086 5.40552 5.91621 5.40552 6.51267C5.40552 7.10922 5.88983 7.59448 6.48522 7.59448C7.08052 7.59448 7.56493 7.10922 7.56493 6.51267C7.56493 6.39401 7.54539 6.27983 7.50998 6.1729L9.2199 4.32679C9.36431 4.17087 9.35519 3.92719 9.19957 3.7825C9.04395 3.63781 8.80085 3.64695 8.65644 3.80288ZM6.48522 6.82431C6.31374 6.82431 6.17419 6.68449 6.17419 6.51267C6.17419 6.34084 6.31374 6.20112 6.48522 6.20112C6.65671 6.20112 6.79626 6.34084 6.79626 6.51267C6.79626 6.68449 6.65671 6.82431 6.48522 6.82431Z" fill="#DB291C"/>
</svg>
