<svg width="25" height="25" viewBox="0 0 25 25" fill="none" xmlns="http://www.w3.org/2000/svg">
<path d="M15.1733 15.1026C14.8071 14.6872 14.4043 14.3206 13.9648 14.0029C13.5254 13.6852 13.0534 13.4123 12.5488 13.1843C12.0443 12.9562 11.5316 12.7892 11.0107 12.6833C10.4899 12.5774 9.94466 12.5204 9.375 12.5122C8.65885 12.5122 7.96712 12.6059 7.2998 12.7933C6.63249 12.9806 6.00993 13.2413 5.43213 13.5753C4.85433 13.9093 4.32943 14.3166 3.85742 14.7972C3.38542 15.2778 2.97852 15.8073 2.63672 16.3856C2.29492 16.964 2.03044 17.5872 1.84326 18.2551C1.65609 18.9231 1.5625 19.6155 1.5625 20.3324H0C0 19.3548 0.142415 18.414 0.427246 17.5098C0.712077 16.6056 1.12305 15.7706 1.66016 15.0049C2.19727 14.2392 2.83203 13.559 3.56445 12.9643C4.29688 12.3697 5.12695 11.9013 6.05469 11.5591C5.13509 10.9563 4.41895 10.1988 3.90625 9.28641C3.39355 8.37406 3.13314 7.36396 3.125 6.25611C3.125 5.39264 3.28776 4.58211 3.61328 3.82454C3.9388 3.06696 4.38232 2.40306 4.94385 1.83284C5.50537 1.26263 6.16862 0.814598 6.93359 0.488759C7.69857 0.16292 8.51237 0 9.375 0C10.2376 0 11.0474 0.16292 11.8042 0.488759C12.561 0.814598 13.2243 1.25855 13.7939 1.82063C14.3636 2.3827 14.8112 3.0466 15.1367 3.81232C15.4622 4.57804 15.625 5.39264 15.625 6.25611C15.625 6.79374 15.5599 7.31916 15.4297 7.83236C15.2995 8.34555 15.1042 8.83024 14.8438 9.28641C14.5833 9.74259 14.2782 10.1621 13.9282 10.545C13.5783 10.9278 13.1673 11.2659 12.6953 11.5591C13.3789 11.8198 14.0218 12.1538 14.624 12.5611C15.2262 12.9684 15.7756 13.4449 16.272 13.9907L15.1733 15.1026ZM4.6875 6.25611C4.6875 6.90779 4.80957 7.51466 5.05371 8.07674C5.29785 8.63881 5.63151 9.13571 6.05469 9.56745C6.47786 9.99919 6.97428 10.3372 7.54395 10.5816C8.11361 10.826 8.72396 10.9482 9.375 10.9482C10.0179 10.9482 10.6242 10.826 11.1938 10.5816C11.7635 10.3372 12.2599 10.0033 12.6831 9.57967C13.1063 9.15608 13.444 8.65917 13.6963 8.08895C13.9486 7.51874 14.0706 6.90779 14.0625 6.25611C14.0625 5.61258 13.9404 5.0057 13.6963 4.43548C13.4521 3.86527 13.1185 3.36836 12.6953 2.94477C12.2721 2.52118 11.7716 2.18312 11.1938 1.9306C10.616 1.67807 10.0098 1.55588 9.375 1.56403C8.72396 1.56403 8.11768 1.68622 7.55615 1.9306C6.99463 2.17498 6.49821 2.50896 6.06689 2.93255C5.63558 3.35614 5.29785 3.85712 5.05371 4.43548C4.80957 5.01385 4.6875 5.62072 4.6875 6.25611ZM22.5586 10.9482C22.9004 10.9482 23.2178 11.0093 23.5107 11.1315C23.8037 11.2537 24.0641 11.4207 24.292 11.6325C24.5199 11.8442 24.6908 12.1008 24.8047 12.4022C24.9186 12.7036 24.9837 13.0254 25 13.3675C25 13.6852 24.939 13.9948 24.8169 14.2962C24.6948 14.5976 24.5199 14.8623 24.292 15.0904L15.5396 23.8514L10.9375 25L12.085 20.3935L20.8374 11.6447C21.0734 11.4084 21.3379 11.2333 21.6309 11.1193C21.9238 11.0052 22.2331 10.9482 22.5586 10.9482ZM23.1812 13.9907C23.3521 13.8196 23.4375 13.6119 23.4375 13.3675C23.4375 13.115 23.3561 12.9114 23.1934 12.7566C23.0306 12.6018 22.819 12.5204 22.5586 12.5122C22.4447 12.5122 22.3348 12.5285 22.229 12.5611C22.1232 12.5937 22.0296 12.6548 21.9482 12.7444L13.501 21.1999L13.0859 22.8495L14.7339 22.434L23.1812 13.9907Z" fill="#DB291C"/>
</svg>
