<svg width="21" height="21" viewBox="0 0 21 21" fill="none" xmlns="http://www.w3.org/2000/svg">
<path d="M21 3.43506C21 3.88623 20.9146 4.32373 20.7437 4.74756C20.5728 5.17139 20.3232 5.54736 19.9951 5.87549L6.49072 19.3799L0 21L1.62012 14.5093L15.1245 1.00488C15.4526 0.676758 15.8286 0.427246 16.2524 0.256348C16.6763 0.0854492 17.1138 0 17.5649 0C18.0366 0 18.481 0.0888672 18.8979 0.266602C19.3149 0.444336 19.6772 0.69043 19.9849 1.00488C20.2925 1.31934 20.5386 1.68506 20.7231 2.10205C20.9077 2.51904 21 2.96338 21 3.43506ZM3.34277 14.6426C4.06738 14.8818 4.68945 15.2612 5.20898 15.7808C5.72852 16.3003 6.11133 16.9258 6.35742 17.6572L17.4419 6.5625L14.4375 3.55811L3.34277 14.6426ZM1.80469 19.1953L5.17822 18.3545C5.10986 18.04 5.00049 17.7427 4.8501 17.4624C4.69971 17.1821 4.51172 16.9326 4.28613 16.7139C4.06055 16.4951 3.81104 16.3105 3.5376 16.1602C3.26416 16.0098 2.9668 15.897 2.64551 15.8218L1.80469 19.1953ZM18.375 5.62939C18.5459 5.4585 18.71 5.29785 18.8672 5.14746C19.0244 4.99707 19.1646 4.83984 19.2876 4.67578C19.4106 4.51172 19.5063 4.33057 19.5747 4.13232C19.6431 3.93408 19.6807 3.70508 19.6875 3.44531C19.6875 3.15137 19.6328 2.87793 19.5234 2.625C19.4141 2.37207 19.2603 2.14648 19.062 1.94824C18.8638 1.75 18.6382 1.59619 18.3853 1.48682C18.1323 1.37744 17.8555 1.31934 17.5547 1.3125C17.2949 1.3125 17.0693 1.34668 16.8779 1.41504C16.6865 1.4834 16.5054 1.58252 16.3345 1.7124C16.1636 1.84229 16.0029 1.98242 15.8525 2.13281C15.7021 2.2832 15.5415 2.44727 15.3706 2.625L18.375 5.62939Z" fill="#009174"/>
</svg>
