<svg width="22" height="22" viewBox="0 0 22 22" fill="none" xmlns="http://www.w3.org/2000/svg">
<path d="M17.2128 7.59052H13.9254V9.54113H17.2128C18.1904 9.54113 18.9489 10.0405 18.9489 10.4703V19.1199C18.9489 19.5497 18.1904 20.0491 17.2128 20.0491H4.78676C3.80918 20.0491 3.05071 19.5497 3.05071 19.1199V10.4706C3.05071 10.0408 3.80918 9.54145 4.78676 9.54145H8.07354V7.59084H4.78676C2.71943 7.59084 1.1001 8.85581 1.1001 10.4706V19.1203C1.1001 20.7354 2.71943 22 4.78676 22H17.2131C19.2801 22 20.8998 20.7351 20.8998 19.1203V10.4706C20.8995 8.85549 19.2801 7.59052 17.2128 7.59052Z" fill="white"/>
<path d="M8.11357 4.86191C8.36325 4.86191 8.6126 4.76665 8.80311 4.57614L10.0242 3.35506V7.59049V9.5411V13.2778C10.0242 13.8165 10.4608 14.2531 10.9995 14.2531C11.5382 14.2531 11.9748 13.8165 11.9748 13.2778V9.5411V7.59049V3.28906L13.2619 4.57614C13.4524 4.76665 13.7021 4.86191 13.9514 4.86191C14.2008 4.86191 14.4505 4.76665 14.641 4.57614C15.022 4.19545 15.022 3.57775 14.641 3.19706L11.729 0.285115C11.5385 0.0946048 11.2892 0 11.0398 0C11.0372 0 11.0349 0 11.0323 0C11.0297 0 11.0275 0 11.0249 0C10.7755 0 10.5262 0.0946048 10.3356 0.285115L7.4237 3.19706C7.04268 3.57775 7.04268 4.19545 7.4237 4.57614C7.61454 4.76665 7.86389 4.86191 8.11357 4.86191Z" fill="white"/>
</svg>
