<svg width="12" height="12" viewBox="0 0 12 12" fill="none" xmlns="http://www.w3.org/2000/svg">
<path d="M12 9.2168V12H9V10.5H7.5V9H6V7.78711C5.71094 7.93945 5.4082 8.05469 5.0918 8.13281C4.77539 8.21094 4.45312 8.25 4.125 8.25C3.74609 8.25 3.38086 8.20117 3.0293 8.10352C2.67773 8.00586 2.34961 7.86719 2.04492 7.6875C1.74023 7.50781 1.46289 7.29297 1.21289 7.04297C0.962891 6.79297 0.746094 6.51367 0.5625 6.20508C0.378906 5.89648 0.240234 5.56836 0.146484 5.2207C0.0527344 4.87305 0.00390625 4.50781 0 4.125C0 3.74609 0.0488281 3.38086 0.146484 3.0293C0.244141 2.67773 0.382812 2.34961 0.5625 2.04492C0.742188 1.74023 0.957031 1.46289 1.20703 1.21289C1.45703 0.962891 1.73633 0.746094 2.04492 0.5625C2.35352 0.378906 2.68164 0.240234 3.0293 0.146484C3.37695 0.0527344 3.74219 0.00390625 4.125 0C4.50391 0 4.86914 0.0488281 5.2207 0.146484C5.57227 0.244141 5.90039 0.382812 6.20508 0.5625C6.50977 0.742188 6.78711 0.957031 7.03711 1.20703C7.28711 1.45703 7.50391 1.73633 7.6875 2.04492C7.87109 2.35352 8.00977 2.68164 8.10352 3.0293C8.19727 3.37695 8.24609 3.74219 8.25 4.125C8.25 4.32422 8.23438 4.52148 8.20312 4.7168C8.17188 4.91211 8.12695 5.10352 8.06836 5.29102L12 9.2168ZM11.25 9.5332L7.20703 5.49023C7.29297 5.26758 7.36328 5.04492 7.41797 4.82227C7.47266 4.59961 7.5 4.36719 7.5 4.125C7.5 3.66016 7.41211 3.22266 7.23633 2.8125C7.06055 2.40234 6.81836 2.04492 6.50977 1.74023C6.20117 1.43555 5.84375 1.19531 5.4375 1.01953C5.03125 0.84375 4.59375 0.753906 4.125 0.75C3.66016 0.75 3.22266 0.837891 2.8125 1.01367C2.40234 1.18945 2.04492 1.43164 1.74023 1.74023C1.43555 2.04883 1.19531 2.40625 1.01953 2.8125C0.84375 3.21875 0.753906 3.65625 0.75 4.125C0.75 4.58984 0.837891 5.02734 1.01367 5.4375C1.18945 5.84766 1.43164 6.20508 1.74023 6.50977C2.04883 6.81445 2.40625 7.05469 2.8125 7.23047C3.21875 7.40625 3.65625 7.49609 4.125 7.5C4.50391 7.5 4.875 7.43555 5.23828 7.30664C5.60156 7.17773 5.93164 6.99219 6.22852 6.75H6.75V8.25H8.25V9.75H9.75V11.25H11.25V9.5332ZM3 2.25C3.10547 2.25 3.20312 2.26953 3.29297 2.30859C3.38281 2.34766 3.46094 2.40039 3.52734 2.4668C3.59375 2.5332 3.64844 2.61328 3.69141 2.70703C3.73438 2.80078 3.75391 2.89844 3.75 3C3.75 3.10547 3.73047 3.20312 3.69141 3.29297C3.65234 3.38281 3.59961 3.46094 3.5332 3.52734C3.4668 3.59375 3.38672 3.64844 3.29297 3.69141C3.19922 3.73438 3.10156 3.75391 3 3.75C2.89453 3.75 2.79688 3.73047 2.70703 3.69141C2.61719 3.65234 2.53906 3.59961 2.47266 3.5332C2.40625 3.4668 2.35156 3.38672 2.30859 3.29297C2.26562 3.19922 2.24609 3.10156 2.25 3C2.25 2.89453 2.26953 2.79688 2.30859 2.70703C2.34766 2.61719 2.40039 2.53906 2.4668 2.47266C2.5332 2.40625 2.61328 2.35156 2.70703 2.30859C2.80078 2.26562 2.89844 2.24609 3 2.25Z" fill="#E20715"/>
</svg>
