<svg width="11" height="12" viewBox="0 0 11 12" fill="none" xmlns="http://www.w3.org/2000/svg">
<path d="M5.625 6H4.875V0H5.625V6ZM6.86719 1.75781C7.40625 1.92969 7.89844 2.17969 8.34375 2.50781C8.78906 2.83594 9.17188 3.2207 9.49219 3.66211C9.8125 4.10352 10.0605 4.58789 10.2363 5.11523C10.4121 5.64258 10.5 6.1875 10.5 6.75C10.5 7.23438 10.4375 7.69922 10.3125 8.14453C10.1875 8.58984 10.0117 9.00781 9.78516 9.39844C9.55859 9.78906 9.28516 10.1426 8.96484 10.459C8.64453 10.7754 8.29102 11.0488 7.9043 11.2793C7.51758 11.5098 7.09961 11.6875 6.65039 11.8125C6.20117 11.9375 5.73438 12 5.25 12C4.76562 12 4.30078 11.9375 3.85547 11.8125C3.41016 11.6875 2.99219 11.5117 2.60156 11.2852C2.21094 11.0586 1.85742 10.7852 1.54102 10.4648C1.22461 10.1445 0.951172 9.79102 0.720703 9.4043C0.490234 9.01758 0.3125 8.59961 0.1875 8.15039C0.0625 7.70117 0 7.23438 0 6.75C0 6.1875 0.0878906 5.64258 0.263672 5.11523C0.439453 4.58789 0.685547 4.10352 1.00195 3.66211C1.31836 3.2207 1.70117 2.83594 2.15039 2.50781C2.59961 2.17969 3.09375 1.92969 3.63281 1.75781L3.86719 2.4668C3.40234 2.61914 2.97852 2.83594 2.5957 3.11719C2.21289 3.39844 1.88477 3.72656 1.61133 4.10156C1.33789 4.47656 1.12695 4.88867 0.978516 5.33789C0.830078 5.78711 0.753906 6.25781 0.75 6.75C0.75 7.16406 0.802734 7.5625 0.908203 7.94531C1.01367 8.32812 1.16602 8.68555 1.36523 9.01758C1.56445 9.34961 1.79883 9.6543 2.06836 9.93164C2.33789 10.209 2.64062 10.4434 2.97656 10.6348C3.3125 10.8262 3.67188 10.9766 4.05469 11.0859C4.4375 11.1953 4.83594 11.25 5.25 11.25C5.66406 11.25 6.0625 11.1973 6.44531 11.0918C6.82812 10.9863 7.18555 10.834 7.51758 10.6348C7.84961 10.4355 8.1543 10.2012 8.43164 9.93164C8.70898 9.66211 8.94336 9.35938 9.13477 9.02344C9.32617 8.6875 9.47656 8.32812 9.58594 7.94531C9.69531 7.5625 9.75 7.16406 9.75 6.75C9.75 6.26172 9.67578 5.79297 9.52734 5.34375C9.37891 4.89453 9.16602 4.48047 8.88867 4.10156C8.61133 3.72266 8.2832 3.39453 7.9043 3.11719C7.52539 2.83984 7.10156 2.62305 6.63281 2.4668L6.86719 1.75781Z" fill="#E20715"/>
</svg>
