<svg width="30" height="30" viewBox="0 0 30 30" fill="none" xmlns="http://www.w3.org/2000/svg">
<path d="M12.4338 22.3809C12.4338 23.7486 13.5529 24.8677 14.9206 24.8677C16.2883 24.8677 17.4073 23.7486 17.4073 22.3809C17.4073 21.0132 16.2883 19.8941 14.9206 19.8941C13.5529 19.8941 12.4338 21.0132 12.4338 22.3809ZM12.4338 7.46033C12.4338 8.82805 13.5529 9.94709 14.9206 9.94709C16.2883 9.94709 17.4073 8.82805 17.4073 7.46033C17.4073 6.09261 16.2883 4.97357 14.9206 4.97357C13.5529 4.97357 12.4338 6.09261 12.4338 7.46033ZM12.4338 14.9206C12.4338 16.2883 13.5529 17.4074 14.9206 17.4074C16.2883 17.4074 17.4073 16.2883 17.4073 14.9206C17.4073 13.5529 16.2883 12.4339 14.9206 12.4339C13.5529 12.4339 12.4338 13.5529 12.4338 14.9206Z" fill="#4D4D4D"/>
</svg>
