<svg width="20" height="24" viewBox="0 0 20 24" fill="none" xmlns="http://www.w3.org/2000/svg">
<path d="M20 18.8571V20.5714H13.3333C13.3333 21.0446 13.2465 21.4866 13.0729 21.8973C12.8993 22.308 12.6606 22.6741 12.3568 22.9955C12.053 23.317 11.7014 23.5625 11.3021 23.7321C10.9028 23.9018 10.4687 23.9911 10 24C9.53993 24 9.11024 23.9107 8.71094 23.7321C8.31163 23.5536 7.95573 23.308 7.64323 22.9955C7.33073 22.683 7.09201 22.3214 6.92708 21.9107C6.76215 21.5 6.67535 21.0536 6.66667 20.5714H0V18.8571H1.66667V8.57143C1.66667 7.78571 1.76649 7.02679 1.96615 6.29464C2.1658 5.5625 2.44358 4.87946 2.79948 4.24554C3.15538 3.61161 3.58941 3.03571 4.10156 2.51786C4.61372 2 5.17795 1.55357 5.79427 1.17857C6.41059 0.803571 7.07465 0.513393 7.78646 0.308036C8.49826 0.102679 9.23611 0 10 0C10.7639 0 11.5017 0.102679 12.2135 0.308036C12.9253 0.513393 13.5894 0.799107 14.2057 1.16518C14.822 1.53125 15.3819 1.97768 15.8854 2.50446C16.3889 3.03125 16.8229 3.61161 17.1875 4.24554C17.5521 4.87946 17.8342 5.5625 18.0339 6.29464C18.2335 7.02679 18.3333 7.78571 18.3333 8.57143V18.8571H20ZM16.6667 18.8571V8.57143C16.6667 7.625 16.4931 6.73661 16.1458 5.90625C15.7986 5.07589 15.3212 4.35268 14.7135 3.73661C14.1059 3.12054 13.3984 2.62946 12.5911 2.26339C11.7839 1.89732 10.9201 1.71429 10 1.71429C9.07986 1.71429 8.21615 1.89286 7.40885 2.25C6.60156 2.60714 5.89844 3.09821 5.29948 3.72321C4.70052 4.34821 4.22309 5.07589 3.86719 5.90625C3.51128 6.73661 3.33333 7.625 3.33333 8.57143V18.8571H16.6667ZM10 22.2857C10.2344 22.2857 10.4514 22.2411 10.651 22.1518C10.8507 22.0625 11.0243 21.942 11.1719 21.7902C11.3194 21.6384 11.441 21.4554 11.5365 21.2411C11.6319 21.0268 11.6753 20.8036 11.6667 20.5714H8.33333C8.33333 20.8125 8.37674 21.0357 8.46354 21.2411C8.55035 21.4464 8.66753 21.625 8.8151 21.7768C8.96267 21.9286 9.14062 22.0536 9.34896 22.1518C9.55729 22.25 9.77431 22.2946 10 22.2857Z" fill="#808080"/>
</svg>
