<svg width="22" height="22" viewBox="0 0 22 22" fill="none" xmlns="http://www.w3.org/2000/svg">
<g clip-path="url(#clip0)">
<path d="M10.3125 18.3333H2.0625C0.925833 18.3333 0 17.4075 0 16.2708V8.47916C0 7.34249 0.925833 6.41666 2.0625 6.41666H12.6042C13.7408 6.41666 14.6667 7.34249 14.6667 8.47916V11.2292C14.6667 11.6087 14.3587 11.9167 13.9792 11.9167C13.5997 11.9167 13.2917 11.6087 13.2917 11.2292V8.47916C13.2917 8.10057 12.9827 7.79166 12.6042 7.79166H2.0625C1.68392 7.79166 1.375 8.10057 1.375 8.47916V16.2708C1.375 16.6494 1.68392 16.9583 2.0625 16.9583H10.3125C10.692 16.9583 11 17.2663 11 17.6458C11 18.0253 10.692 18.3333 10.3125 18.3333Z" fill="#009174"/>
<path d="M11.2292 7.79167C10.8497 7.79167 10.5417 7.48367 10.5417 7.10417V4.58333C10.5417 2.81417 9.1025 1.375 7.33333 1.375C5.56417 1.375 4.125 2.81417 4.125 4.58333V7.10417C4.125 7.48367 3.817 7.79167 3.4375 7.79167C3.058 7.79167 2.75 7.48367 2.75 7.10417V4.58333C2.75 2.05608 4.80608 0 7.33333 0C9.86058 0 11.9167 2.05608 11.9167 4.58333V7.10417C11.9167 7.48367 11.6087 7.79167 11.2292 7.79167Z" fill="#009174"/>
<path d="M21.3125 16.5H19.4791C19.0996 16.5 18.7916 16.192 18.7916 15.8125C18.7916 15.433 19.0996 15.125 19.4791 15.125H20.625V13.9792C20.625 13.5997 20.933 13.2917 21.3125 13.2917C21.692 13.2917 22 13.5997 22 13.9792V15.8125C22 16.192 21.692 16.5 21.3125 16.5Z" fill="#009174"/>
<path d="M13.5209 21.5417C13.1414 21.5417 12.8334 21.2337 12.8334 20.8542V19.0208C12.8334 18.6413 13.1414 18.3333 13.5209 18.3333H15.3542C15.7337 18.3333 16.0417 18.6413 16.0417 19.0208C16.0417 19.4003 15.7337 19.7083 15.3542 19.7083H14.2084V20.8542C14.2084 21.2337 13.9004 21.5417 13.5209 21.5417Z" fill="#009174"/>
<path d="M13.695 16.9583C13.629 16.9583 13.5612 16.9483 13.4952 16.929C13.1322 16.8181 12.9269 16.434 13.0369 16.071C13.6263 14.1341 15.3863 12.8333 17.4167 12.8333C19.1125 12.8333 20.659 13.7638 21.4528 15.2607C21.6297 15.5962 21.5023 16.0123 21.1668 16.1911C20.8285 16.3662 20.4151 16.2406 20.2364 15.9051C19.6836 14.8583 18.602 14.2083 17.4167 14.2083C15.9959 14.2083 14.7648 15.1177 14.3532 16.4707C14.2634 16.7677 13.9902 16.9583 13.695 16.9583Z" fill="#009174"/>
<path d="M17.4167 22C15.7208 22 14.1744 21.0696 13.3806 19.5727C13.2037 19.2372 13.3311 18.821 13.6666 18.6422C14.0039 18.4662 14.4182 18.5927 14.597 18.9282C15.1497 19.9751 16.2314 20.625 17.4167 20.625C18.8292 20.625 20.0612 19.7147 20.482 18.3581C20.5947 17.996 20.9788 17.7925 21.3418 17.9062C21.7048 18.018 21.9065 18.4039 21.7938 18.766C21.1943 20.7002 19.4352 22 17.4167 22Z" fill="#009174"/>
</g>
<defs>
<clipPath id="clip0">
<rect width="22" height="22" fill="white"/>
</clipPath>
</defs>
</svg>
