<svg width="24" height="24" viewBox="0 0 24 24" fill="none" xmlns="http://www.w3.org/2000/svg">
<path d="M21 1.5C21.2109 1.5 21.4063 1.53906 21.5859 1.61719C21.7656 1.69531 21.9219 1.80078 22.0547 1.93359C22.1875 2.06641 22.2969 2.22656 22.3828 2.41406C22.4688 2.60156 22.5078 2.79688 22.5 3V22.5H4.18359L1.5 19.8047V3C1.5 2.78906 1.53906 2.59375 1.61719 2.41406C1.69531 2.23438 1.80078 2.07812 1.93359 1.94531C2.06641 1.8125 2.22656 1.70313 2.41406 1.61719C2.60156 1.53125 2.79688 1.49219 3 1.5H21ZM6 10.5H18V3H6V10.5ZM15 16.5H7.5V21H9V18H10.5V21H15V16.5ZM21 3H19.5V12H4.5V3H3V19.1836L4.80469 21H6V15H16.5V21H21V3Z" fill="#EBEBEB"/>
</svg>
