<svg width="12" height="12" viewBox="0 0 12 12" fill="none" xmlns="http://www.w3.org/2000/svg">
<path d="M11.3086 1.28906C11.4102 1.46484 11.502 1.63281 11.584 1.79297C11.666 1.95312 11.7402 2.11523 11.8066 2.2793C11.873 2.44336 11.9199 2.61328 11.9473 2.78906C11.9746 2.96484 11.9922 3.16016 12 3.375C12 3.68359 11.9609 3.98047 11.8828 4.26562C11.8047 4.55078 11.6914 4.82031 11.543 5.07422C11.3945 5.32812 11.2168 5.55664 11.0098 5.75977C10.8027 5.96289 10.5742 6.13867 10.3242 6.28711C10.0742 6.43555 9.80664 6.54883 9.52148 6.62695C9.23633 6.70508 8.9375 6.74609 8.625 6.75C8.53516 6.75 8.44531 6.74609 8.35547 6.73828C8.26562 6.73047 8.17383 6.71875 8.08008 6.70312L3.35742 11.4258C3.16992 11.6133 2.95703 11.7559 2.71875 11.8535C2.48047 11.9512 2.22852 12 1.96289 12C1.69336 12 1.43945 11.9492 1.20117 11.8477C0.962891 11.7461 0.755859 11.6055 0.580078 11.4258C0.404297 11.2461 0.263672 11.0371 0.158203 10.7988C0.0527344 10.5605 0 10.3066 0 10.0371C0 9.77539 0.0488281 9.52539 0.146484 9.28711C0.244141 9.04883 0.386719 8.83398 0.574219 8.64258L5.29688 3.91992C5.28125 3.83008 5.26953 3.74023 5.26172 3.65039C5.25391 3.56055 5.25 3.46875 5.25 3.375C5.25 3.06641 5.28906 2.76953 5.36719 2.48438C5.44531 2.19922 5.55859 1.92969 5.70703 1.67578C5.85547 1.42188 6.0332 1.19336 6.24023 0.990234C6.44727 0.787109 6.67578 0.611328 6.92578 0.462891C7.17578 0.314453 7.44336 0.201172 7.72852 0.123047C8.01367 0.0449219 8.3125 0.00390625 8.625 0C8.83594 0 9.0293 0.015625 9.20508 0.046875C9.38086 0.078125 9.55273 0.126953 9.7207 0.193359C9.88867 0.259766 10.0508 0.332031 10.207 0.410156C10.3633 0.488281 10.5312 0.582031 10.7109 0.691406L8.40234 3L9 3.59766L11.3086 1.28906ZM8.625 6C8.98828 6 9.32812 5.93164 9.64453 5.79492C9.96094 5.6582 10.2383 5.4707 10.4766 5.23242C10.7148 4.99414 10.9023 4.7168 11.0391 4.40039C11.1758 4.08398 11.2461 3.74219 11.25 3.375C11.25 3.08984 11.2031 2.81445 11.1094 2.54883L9 4.65234L7.34766 3L9.45117 0.890625C9.18555 0.796875 8.91016 0.75 8.625 0.75C8.26172 0.75 7.92188 0.818359 7.60547 0.955078C7.28906 1.0918 7.01172 1.2793 6.77344 1.51758C6.53516 1.75586 6.34766 2.0332 6.21094 2.34961C6.07422 2.66602 6.00391 3.00781 6 3.375C6 3.51172 6.01172 3.64453 6.03516 3.77344C6.05859 3.90234 6.08594 4.03125 6.11719 4.16016L1.10742 9.17578C0.994141 9.28906 0.90625 9.41992 0.84375 9.56836C0.78125 9.7168 0.75 9.87305 0.75 10.0371C0.75 10.2012 0.78125 10.3574 0.84375 10.5059C0.90625 10.6543 0.994141 10.7832 1.10742 10.8926C1.2207 11.002 1.34961 11.0879 1.49414 11.1504C1.63867 11.2129 1.79492 11.2461 1.96289 11.25C2.12695 11.25 2.2832 11.2188 2.43164 11.1562C2.58008 11.0938 2.71094 11.0059 2.82422 10.8926L7.83984 5.88281C7.96875 5.91406 8.09766 5.94141 8.22656 5.96484C8.35547 5.98828 8.48828 6 8.625 6Z" fill="#E20715"/>
</svg>
