<svg width="26" height="26" viewBox="0 0 26 26" fill="none" xmlns="http://www.w3.org/2000/svg">
<path d="M26 18.7858L18.8625 26L15.4155 22.5093L16.5688 21.3457L18.8625 23.647L24.8467 17.6222L26 18.7858ZM9.43125 18.9021C9.99507 19.1866 10.5034 19.5357 10.9561 19.9494C11.4089 20.3631 11.7933 20.8242 12.1094 21.3327C12.4255 21.8413 12.6732 22.3929 12.8526 22.9876C13.032 23.5823 13.1217 24.1943 13.1217 24.8235H11.4815C11.4815 24.1426 11.3534 23.5005 11.0971 22.8971C10.8408 22.2938 10.4906 21.768 10.0463 21.3198C9.6021 20.8716 9.07672 20.5139 8.47018 20.2467C7.86364 19.9795 7.22721 19.8503 6.56087 19.8589C5.87744 19.8589 5.24101 19.9882 4.65155 20.2467C4.0621 20.5053 3.54099 20.8587 3.08822 21.3069C2.63545 21.7551 2.28093 22.2852 2.02464 22.8971C1.76836 23.5091 1.64022 24.1512 1.64022 24.8235H0C0 24.1943 0.085428 23.5823 0.256284 22.9876C0.42714 22.3929 0.674881 21.8413 0.999507 21.3327C1.32413 20.8242 1.71283 20.3631 2.1656 19.9494C2.61837 19.5357 3.12666 19.1866 3.69049 18.9021C3.04978 18.4367 2.55002 17.8549 2.19123 17.1568C1.83243 16.4586 1.64876 15.7045 1.64022 14.8943C1.64022 14.2133 1.76836 13.5712 2.02464 12.9679C2.28093 12.3645 2.63118 11.8388 3.07541 11.3906C3.51963 10.9424 4.04074 10.5847 4.63874 10.3175C5.23673 10.0503 5.87744 9.92102 6.56087 9.92964C7.36389 9.92964 8.11138 10.1106 8.80335 10.4726C9.49532 10.8346 10.072 11.3432 10.5333 11.9982C10.8579 11.3432 11.2765 10.7571 11.7891 10.2399C12.3016 9.72278 12.8825 9.30044 13.5318 8.97291C12.8911 8.50748 12.3913 7.92569 12.0325 7.22754C11.6737 6.52939 11.4901 5.77522 11.4815 4.96502C11.4815 4.28411 11.6097 3.64198 11.8659 3.03865C12.1222 2.43531 12.4725 1.90954 12.9167 1.46135C13.3609 1.01315 13.882 0.655458 14.48 0.388265C15.078 0.121072 15.7187 -0.00821511 16.4022 0.000404022C17.077 0.000404022 17.7135 0.129691 18.3115 0.388265C18.9095 0.646839 19.4306 1.00022 19.8748 1.44842C20.319 1.89661 20.6736 2.42669 20.9384 3.03865C21.2032 3.6506 21.3314 4.29273 21.3228 4.96502C21.3228 5.77522 21.1434 6.52939 20.7846 7.22754C20.4258 7.92569 19.9218 8.50748 19.2725 8.97291C19.8364 9.25735 20.3447 9.60642 20.7974 10.0201C21.2502 10.4339 21.6346 10.895 21.9507 11.4035C22.2668 11.912 22.5145 12.4637 22.6939 13.0584C22.8733 13.6531 22.963 14.2651 22.963 14.8943H21.3228C21.3228 14.2133 21.1947 13.5712 20.9384 12.9679C20.6821 12.3645 20.3319 11.8388 19.8876 11.3906C19.4434 10.9424 18.918 10.5847 18.3115 10.3175C17.7049 10.0503 17.0685 9.92102 16.4022 9.92964C15.7187 9.92964 15.0823 10.0589 14.4929 10.3175C13.9034 10.5761 13.3823 10.9295 12.9295 11.3777C12.4768 11.8258 12.1222 12.3559 11.8659 12.9679C11.6097 13.5798 11.4815 14.222 11.4815 14.8943C11.4815 15.7045 11.3021 16.4586 10.9433 17.1568C10.5845 17.8549 10.0805 18.4367 9.43125 18.9021ZM13.1217 4.96502C13.1217 5.42183 13.2072 5.84848 13.378 6.24496C13.5489 6.64144 13.7838 6.99483 14.0828 7.30511C14.3818 7.6154 14.7278 7.85243 15.1207 8.01619C15.5137 8.17996 15.9409 8.26615 16.4022 8.27477C16.8549 8.27477 17.2778 8.18857 17.6708 8.01619C18.0637 7.84381 18.414 7.60678 18.7215 7.30511C19.0291 7.00344 19.264 6.65437 19.4263 6.25789C19.5886 5.86141 19.6741 5.43045 19.6826 4.96502C19.6826 4.50821 19.5972 4.08156 19.4263 3.68508C19.2555 3.2886 19.0205 2.93522 18.7215 2.62493C18.4225 2.31464 18.0766 2.07761 17.6836 1.91385C17.2906 1.75009 16.8635 1.6639 16.4022 1.65528C15.9494 1.65528 15.5265 1.74147 15.1336 1.91385C14.7406 2.08623 14.3903 2.32326 14.0828 2.62493C13.7753 2.9266 13.5403 3.27567 13.378 3.67215C13.2157 4.06863 13.1303 4.49959 13.1217 4.96502ZM3.28043 14.8943C3.28043 15.3511 3.36586 15.7777 3.53672 16.1742C3.70757 16.5707 3.9425 16.9241 4.2415 17.2343C4.5405 17.5446 4.88648 17.7817 5.27945 17.9454C5.67242 18.1092 6.09956 18.1954 6.56087 18.204C7.01364 18.204 7.4365 18.1178 7.82947 17.9454C8.22244 17.773 8.5727 17.536 8.88024 17.2343C9.18778 16.9327 9.4227 16.5836 9.58502 16.1871C9.74733 15.7906 9.83276 15.3597 9.8413 14.8943C9.8413 14.4374 9.75587 14.0108 9.58502 13.6143C9.41416 13.2178 9.17923 12.8645 8.88024 12.5542C8.58124 12.2439 8.23526 12.0068 7.84229 11.8431C7.44932 11.6793 7.02218 11.5931 6.56087 11.5845C6.1081 11.5845 5.68523 11.6707 5.29226 11.8431C4.89929 12.0155 4.54904 12.2525 4.2415 12.5542C3.93396 12.8558 3.69903 13.2049 3.53672 13.6014C3.3744 13.9979 3.28898 14.4288 3.28043 14.8943Z" fill="#DB291C"/>
</svg>
