<svg width="34" height="34" viewBox="0 0 34 34" fill="none" xmlns="http://www.w3.org/2000/svg">
<path d="M22.0801 19.9717C23.5853 20.4919 24.9411 21.2168 26.1475 22.1465C27.3538 23.0762 28.3831 24.1608 29.2354 25.4004C30.0876 26.64 30.7406 27.9847 31.1943 29.4346C31.6481 30.8844 31.875 32.4062 31.875 34H29.75C29.75 32.1849 29.429 30.5026 28.7871 28.9531C28.1452 27.4036 27.2487 26.0534 26.0977 24.9023C24.9466 23.7513 23.6019 22.8604 22.0635 22.2295C20.5251 21.5986 18.8372 21.2721 17 21.25C15.8158 21.25 14.6758 21.3994 13.5801 21.6982C12.4844 21.9971 11.4661 22.4176 10.5254 22.96C9.58464 23.5023 8.72689 24.1608 7.95215 24.9355C7.17741 25.7103 6.51888 26.568 5.97656 27.5088C5.43424 28.4495 5.00814 29.4733 4.69824 30.5801C4.38835 31.6868 4.23893 32.8268 4.25 34H2.125C2.125 32.4062 2.35742 30.8844 2.82227 29.4346C3.28711 27.9847 3.94564 26.6455 4.79785 25.417C5.65007 24.1885 6.67936 23.1149 7.88574 22.1963C9.09212 21.2777 10.4479 20.5417 11.9531 19.9883C11.0898 19.5234 10.3151 18.959 9.62891 18.2949C8.94271 17.6309 8.36165 16.8949 7.88574 16.0869C7.40983 15.279 7.03906 14.4102 6.77344 13.4805C6.50781 12.5508 6.375 11.599 6.375 10.625C6.375 9.153 6.65169 7.77506 7.20508 6.49121C7.75846 5.20736 8.5166 4.07845 9.47949 3.10449C10.4424 2.13053 11.5658 1.3724 12.8496 0.830078C14.1335 0.28776 15.5169 0.0110677 17 0C18.472 0 19.8499 0.276693 21.1338 0.830078C22.4176 1.38346 23.5465 2.1416 24.5205 3.10449C25.4945 4.06738 26.2526 5.19076 26.7949 6.47461C27.3372 7.75846 27.6139 9.14193 27.625 10.625C27.625 11.599 27.4977 12.5452 27.2432 13.4639C26.9886 14.3825 26.6178 15.2458 26.1309 16.0537C25.6439 16.8617 25.0628 17.5977 24.3877 18.2617C23.7126 18.9258 22.9434 19.4958 22.0801 19.9717ZM8.5 10.625C8.5 11.7982 8.72135 12.8994 9.16406 13.9287C9.60677 14.958 10.2155 15.8545 10.9902 16.6182C11.765 17.3818 12.667 17.9906 13.6963 18.4443C14.7256 18.8981 15.8268 19.125 17 19.125C18.1732 19.125 19.2744 18.9036 20.3037 18.4609C21.333 18.0182 22.2295 17.4095 22.9932 16.6348C23.7568 15.86 24.3656 14.958 24.8193 13.9287C25.2731 12.8994 25.5 11.7982 25.5 10.625C25.5 9.45182 25.2786 8.35059 24.8359 7.32129C24.3932 6.29199 23.7845 5.39551 23.0098 4.63184C22.235 3.86816 21.333 3.25944 20.3037 2.80566C19.2744 2.35189 18.1732 2.125 17 2.125C15.8268 2.125 14.7256 2.34635 13.6963 2.78906C12.667 3.23177 11.7705 3.84049 11.0068 4.61523C10.2432 5.38997 9.63444 6.29199 9.18066 7.32129C8.72689 8.35059 8.5 9.45182 8.5 10.625Z" fill="#76797C"/>
</svg>
