<svg width="26" height="26" viewBox="0 0 26 26" fill="none" xmlns="http://www.w3.org/2000/svg">
<g clip-path="url(#clip0)">
<path d="M22.1926 7.85985C19.7372 5.3997 16.4725 4.0448 13.0001 4.0448C9.52773 4.0448 6.26302 5.3997 3.80764 7.85985C1.35226 10.3202 0 13.5911 0 17.0702C0 18.0274 0.104142 18.9824 0.30965 19.9088C0.428273 20.4431 0.582403 20.9749 0.767677 21.4897C0.880548 21.8035 1.17591 21.9989 1.49072 21.9989C1.57741 21.9989 1.66528 21.984 1.75157 21.953C2.15088 21.8085 2.35778 21.3673 2.21377 20.9672C2.05051 20.5136 1.91483 20.0452 1.81049 19.5745C1.68453 19.0063 1.6026 18.4257 1.56392 17.8404H3.92725C4.35176 17.8404 4.69592 17.4956 4.69592 17.0702C4.69592 16.6449 4.35176 16.3001 3.92725 16.3001H1.56372C1.66548 14.7687 2.06797 13.3186 2.71266 12.0084L4.75841 13.192C4.87941 13.2619 5.01152 13.2953 5.14205 13.2953C5.40766 13.2953 5.66613 13.1572 5.80836 12.9102C6.02061 12.5417 5.89465 12.0706 5.52708 11.858L3.48311 10.6756C4.31506 9.43656 5.38128 8.36826 6.6177 7.53469L7.79797 9.58264C7.9402 9.82989 8.19867 9.96802 8.46429 9.96802C8.59461 9.96802 8.72692 9.93463 8.84793 9.86467C9.2157 9.652 9.34166 9.18096 9.12921 8.81247L7.94814 6.76274C9.25577 6.11679 10.7028 5.71353 12.2313 5.61176V7.9797C12.2313 8.40503 12.5754 8.74987 12.9999 8.74987C13.4244 8.74987 13.7688 8.40503 13.7688 7.9797V5.61176C15.297 5.71372 16.7443 6.11679 18.0519 6.76274L16.8707 8.81267C16.6584 9.18096 16.7844 9.652 17.1521 9.86467C17.2731 9.93463 17.4052 9.96802 17.5358 9.96802C17.8014 9.96802 18.0597 9.82989 18.2021 9.58284L19.3822 7.53469C20.6188 8.36826 21.685 9.43656 22.5169 10.6756L20.473 11.858C20.1052 12.0706 19.9792 12.5417 20.1915 12.9102C20.3339 13.1572 20.5924 13.2953 20.858 13.2953C20.9883 13.2953 21.1206 13.2621 21.2416 13.192L23.2874 12.0086C23.9321 13.3186 24.3346 14.7687 24.4363 16.3001H22.0728C21.6481 16.3001 21.3039 16.6449 21.3039 17.0702C21.3039 17.4956 21.6481 17.8404 22.0728 17.8404H24.4361C24.3994 18.3945 24.3243 18.9447 24.2094 19.4833C24.1144 19.9281 23.9916 20.3717 23.8442 20.8016C23.7064 21.2041 23.9202 21.6421 24.3217 21.7803C24.7232 21.9182 25.1606 21.7042 25.2984 21.3019C25.4657 20.8137 25.6051 20.3103 25.7128 19.8055C25.9035 18.9119 26.0001 17.9917 26.0001 17.0702C26.0003 13.5911 24.648 10.3202 22.1926 7.85985Z" fill="#DB291C"/>
<path d="M17.3129 11.6507L14.0353 15.1893C13.7209 15.0098 13.3575 14.9066 12.9704 14.9066C11.7797 14.9066 10.811 15.8773 10.811 17.0703C10.811 18.2634 11.7797 19.2339 12.9704 19.2339C14.161 19.2339 15.1299 18.2634 15.1299 17.0703C15.1299 16.8329 15.0908 16.6046 15.02 16.3907L18.4398 12.6985C18.7286 12.3867 18.7104 11.8993 18.3991 11.6099C18.0879 11.3205 17.6017 11.3388 17.3129 11.6507ZM12.9704 17.6935C12.6275 17.6935 12.3484 17.4139 12.3484 17.0703C12.3484 16.7266 12.6275 16.4472 12.9704 16.4472C13.3134 16.4472 13.5925 16.7266 13.5925 17.0703C13.5925 17.4139 13.3134 17.6935 12.9704 17.6935Z" fill="#DB291C"/>
</g>
<defs>
<clipPath id="clip0">
<rect width="26" height="26" fill="white"/>
</clipPath>
</defs>
</svg>
