<svg width="21" height="21" viewBox="0 0 21 21" fill="none" xmlns="http://www.w3.org/2000/svg">
<g clip-path="url(#clip0)">
<path d="M18.375 3.9375H17.0625V19.0312C17.0625 19.3047 17.0112 19.561 16.9087 19.8003C16.8062 20.0395 16.666 20.248 16.4883 20.4258C16.3105 20.6035 16.1021 20.7437 15.8628 20.8462C15.6235 20.9487 15.3672 21 15.0938 21H4.59375C4.32031 21 4.06396 20.9487 3.82471 20.8462C3.58545 20.7437 3.37695 20.6035 3.19922 20.4258C3.02148 20.248 2.88135 20.0395 2.77881 19.8003C2.67627 19.561 2.625 19.3047 2.625 19.0312V3.9375H1.3125V2.625H6.5625V1.3125C6.5625 1.12793 6.59668 0.957031 6.66504 0.799805C6.7334 0.642578 6.82568 0.505859 6.94189 0.389648C7.05811 0.273437 7.19824 0.177734 7.3623 0.102539C7.52637 0.0273437 7.69727 -0.00683594 7.875 0H11.8125C11.9971 0 12.168 0.0341797 12.3252 0.102539C12.4824 0.170898 12.6191 0.263184 12.7354 0.379394C12.8516 0.495605 12.9473 0.635742 13.0225 0.799805C13.0977 0.963867 13.1318 1.13477 13.125 1.3125V2.625H18.375V3.9375ZM7.875 2.625H11.8125V1.3125H7.875V2.625ZM15.75 3.9375H3.9375V19.0312C3.9375 19.209 4.00244 19.3628 4.13232 19.4927C4.26221 19.6226 4.41602 19.6875 4.59375 19.6875H15.0938C15.2715 19.6875 15.4253 19.6226 15.5552 19.4927C15.6851 19.3628 15.75 19.209 15.75 19.0312V3.9375ZM7.875 17.0625H6.5625V6.5625H7.875V17.0625ZM10.5 17.0625H9.1875V6.5625H10.5V17.0625ZM13.125 17.0625H11.8125V6.5625H13.125V17.0625Z" fill="#FD2415"/>
</g>
<defs>
<clipPath id="clip0">
<rect width="21" height="21" fill="white"/>
</clipPath>
</defs>
</svg>
